<svg width="1401" height="697" fill="none" xmlns="http://www.w3.org/2000/svg"><g clip-path="url(#a)"><path fill="#617081" d="M-2-3h1400v701H-2z"/><g clip-path="url(#b)"><g clip-path="url(#c)"><mask id="d" style="mask-type:luminance" maskUnits="userSpaceOnUse" x="-1" y="-37" width="1402" height="736"><path d="M1401-36.145H-1v734.381h1402v-734.38Z" fill="#fff"/></mask><g mask="url(#d)"><path d="M1339.3 494.457c56.37 0 102.07-45.699 102.07-102.073 0-56.374-45.7-102.073-102.07-102.073-56.37 0-102.07 45.699-102.07 102.073 0 56.374 45.7 102.073 102.07 102.073Z" fill="#718296"/><path d="M1214.08 619.666c69.15 0 125.21-56.058 125.21-125.208 0-69.151-56.06-125.208-125.21-125.208-69.15 0-125.2 56.057-125.2 125.208 0 69.15 56.05 125.208 125.2 125.208Z" fill="#718296"/><path d="M990.911 569.735c69.149 0 125.209-56.057 125.209-125.208 0-69.15-56.06-125.208-125.209-125.208-69.15 0-125.208 56.058-125.208 125.208 0 69.151 56.058 125.208 125.208 125.208ZM241.904 618.756c79.805 0 144.499-64.694 144.499-144.498 0-79.804-64.694-144.498-144.499-144.498-79.804 0-144.498 64.694-144.498 144.498 0 79.804 64.694 144.498 144.498 144.498Z" fill="#718296"/><path d="M446.829 753.619c98.337 0 178.055-79.718 178.055-178.056 0-98.337-79.718-178.055-178.055-178.055s-178.056 79.718-178.056 178.055c0 98.338 79.719 178.056 178.056 178.056ZM57.874 511.881c83.943 0 151.992-68.049 151.992-151.992 0-83.943-68.049-151.992-151.992-151.992-83.942 0-151.991 68.049-151.991 151.992 0 83.943 68.049 151.992 151.991 151.992Z" fill="#718296"/><path d="M1339.3 797.105c112.69 0 204.04-91.35 204.04-204.037 0-112.686-91.35-204.036-204.04-204.036-112.68 0-204.03 91.35-204.03 204.036 0 112.687 91.35 204.037 204.03 204.037Z" fill="#8091A4"/><path d="M1104.67 861.8c103.31 0 187.06-83.752 187.06-187.066 0-103.313-83.75-187.065-187.06-187.065-103.32 0-187.068 83.752-187.068 187.065 0 103.314 83.748 187.066 187.068 187.066ZM267.17 785.918c67.624 0 122.444-54.82 122.444-122.444S334.794 541.03 267.17 541.03c-67.623 0-122.443 54.82-122.443 122.444s54.82 122.444 122.443 122.444Z" fill="#8091A4"/><path d="M439.42 764.418c47.78 0 86.514-38.733 86.514-86.514 0-47.78-38.734-86.513-86.514-86.513-47.78 0-86.514 38.733-86.514 86.513 0 47.781 38.734 86.514 86.514 86.514ZM58.828 735.678c107.501 0 194.648-87.147 194.648-194.648 0-107.501-87.147-194.648-194.648-194.648-107.501 0-194.648 87.147-194.648 194.648 0 107.501 87.147 194.648 194.648 194.648Z" fill="#8091A4"/><path d="M960.305 149.939 497.6 113.611c-11.623-.912-21.785 7.77-22.698 19.393l-45.278 576.712c-.912 11.623 7.77 21.785 19.393 22.697l462.706 36.328c11.623.912 21.784-7.77 22.697-19.393l45.278-576.712c.913-11.623-7.77-21.785-19.393-22.697Z" fill="#282828"/><path d="M987.576 119.555 475.397 79.344c-12.866-1.01-24.114 8.6-25.124 21.466l-4.319 55.004c-1.01 12.865 8.601 24.114 21.466 25.124l512.179 40.211c12.866 1.01 24.111-8.6 25.121-21.466l4.32-55.004c1.01-12.866-8.6-24.114-21.464-25.124ZM977.419 248.856 465.24 208.644c-12.865-1.01-24.114 8.601-25.124 21.466l-4.318 55.005c-1.01 12.865 8.601 24.114 21.466 25.124l512.179 40.211c12.866 1.01 24.114-8.6 25.124-21.466l4.318-55.004c1.01-12.866-8.6-24.114-21.466-25.124ZM967.279 378.159 455.1 337.947c-12.866-1.01-24.114 8.601-25.124 21.466l-4.319 55.005c-1.01 12.865 8.601 24.113 21.466 25.123l512.179 40.212c12.866 1.01 24.114-8.601 25.124-21.466l4.319-55.005c1.01-12.865-8.601-24.113-21.466-25.123ZM957.13 507.46l-512.179-40.211c-12.865-1.01-24.114 8.6-25.124 21.466l-4.318 55.004c-1.01 12.866 8.601 24.114 21.466 25.124l512.179 40.212c12.865 1.01 24.114-8.601 25.124-21.466l4.318-55.005c1.01-12.865-8.6-24.114-21.466-25.124ZM946.974 636.763l-512.179-40.211c-12.865-1.011-24.114 8.6-25.124 21.466l-4.318 55.004c-1.01 12.865 8.6 24.114 21.466 25.124l512.179 40.211c12.865 1.01 24.114-8.6 25.124-21.466l4.318-55.004c1.01-12.866-8.601-24.114-21.466-25.124Z" fill="#3D3D3D"/><path d="M540.657 177.461c.708-9.006 8.581-15.734 17.588-15.026l154.271 12.11c9.005.708 15.732 8.582 15.025 17.587l-.719 9.17-186.884-14.671.719-9.17ZM530.501 306.762c.707-9.005 8.581-15.733 17.586-15.025l154.271 12.112c9.005.706 15.733 8.581 15.026 17.586l-.72 9.169-186.883-14.671.72-9.171ZM520.345 436.065c.707-9.005 8.581-15.732 17.588-15.026l154.269 12.112c9.006.708 15.733 8.581 15.027 17.587l-.721 9.17-186.883-14.673.72-9.17ZM510.196 565.368c.706-9.007 8.581-15.733 17.587-15.027l154.27 12.112c9.006.708 15.734 8.581 15.026 17.587l-.72 9.17-186.882-14.673.719-9.169Z" fill="#282828"/><path d="M964.547 165.564a6.568 6.568 0 0 1-.514 6.546l-8.056 11.727a6.568 6.568 0 0 1-5.927 2.828l-14.183-1.114a6.566 6.566 0 0 1-5.412-3.718l-6.127-12.84a6.565 6.565 0 0 1 .513-6.546l8.056-11.728a6.568 6.568 0 0 1 5.927-2.828l14.183 1.115a6.564 6.564 0 0 1 5.412 3.717l6.128 12.841ZM954.4 294.866a6.565 6.565 0 0 1-.515 6.546l-8.056 11.728a6.565 6.565 0 0 1-5.926 2.827l-14.184-1.114a6.564 6.564 0 0 1-5.412-3.718l-6.128-12.84a6.568 6.568 0 0 1 .514-6.546l8.057-11.726a6.561 6.561 0 0 1 5.926-2.828l14.184 1.113a6.565 6.565 0 0 1 5.411 3.718l6.129 12.84ZM944.25 424.169a6.567 6.567 0 0 1-.514 6.546l-8.057 11.726a6.562 6.562 0 0 1-5.925 2.828l-14.184-1.113a6.563 6.563 0 0 1-5.412-3.717l-6.127-12.841a6.57 6.57 0 0 1 .513-6.547l8.056-11.726a6.566 6.566 0 0 1 5.926-2.828l14.184 1.113a6.567 6.567 0 0 1 5.412 3.719l6.128 12.84ZM934.103 553.47a6.565 6.565 0 0 1-.515 6.546l-8.056 11.726a6.564 6.564 0 0 1-5.925 2.829l-14.185-1.114a6.568 6.568 0 0 1-5.412-3.718l-6.128-12.84a6.568 6.568 0 0 1 .514-6.546l8.057-11.728a6.566 6.566 0 0 1 5.926-2.827l14.184 1.114a6.565 6.565 0 0 1 5.411 3.718l6.129 12.84ZM923.945 682.772a6.566 6.566 0 0 1-.513 6.545l-8.056 11.728a6.569 6.569 0 0 1-5.927 2.828l-14.183-1.114a6.566 6.566 0 0 1-5.413-3.718l-6.127-12.841a6.568 6.568 0 0 1 .514-6.546l8.055-11.726a6.565 6.565 0 0 1 5.927-2.828l14.184 1.113a6.568 6.568 0 0 1 5.412 3.718l6.127 12.841Z" fill="#EB001B"/><path d="M738.349 271.999 506.164 253.77a9.169 9.169 0 0 0-9.858 8.424 9.168 9.168 0 0 0 8.423 9.858l232.184 18.229a9.17 9.17 0 0 0 1.436-18.282Z" fill="#BCBCBC"/><path d="M700.217 269.006 506.164 253.77a9.169 9.169 0 0 0-9.858 8.424 9.168 9.168 0 0 0 8.423 9.858l194.053 15.236a9.169 9.169 0 1 0 1.435-18.282Z" fill="#EB001B"/><path d="m728.2 401.301-232.184-18.229a9.17 9.17 0 0 0-1.435 18.282l232.184 18.229a9.17 9.17 0 0 0 1.435-18.282Z" fill="#BCBCBC"/><path d="m537.538 386.332-41.522-3.26a9.17 9.17 0 0 0-1.435 18.282l41.522 3.26a9.169 9.169 0 0 0 9.858-8.423 9.168 9.168 0 0 0-8.423-9.859Z" fill="#EB001B"/><path d="m718.059 530.605-232.184-18.229a9.169 9.169 0 0 0-9.858 8.423 9.168 9.168 0 0 0 8.423 9.859l232.184 18.229a9.17 9.17 0 0 0 1.435-18.282Z" fill="#BCBCBC"/><path d="m606.285 521.829-120.41-9.453a9.169 9.169 0 0 0-9.858 8.423 9.168 9.168 0 0 0 8.423 9.859l120.41 9.453c5.049.397 9.462-3.375 9.859-8.423a9.17 9.17 0 0 0-8.424-9.859Z" fill="#EB001B"/><path d="m707.903 659.907-232.184-18.229c-5.048-.397-9.462 3.375-9.859 8.423a9.17 9.17 0 0 0 8.424 9.859l232.184 18.229a9.169 9.169 0 1 0 1.435-18.282Z" fill="#BCBCBC"/><path d="m651.75 655.498-176.031-13.82c-5.048-.397-9.462 3.375-9.859 8.423a9.17 9.17 0 0 0 8.424 9.859l176.03 13.82c5.049.396 9.463-3.375 9.859-8.423a9.168 9.168 0 0 0-8.423-9.859ZM298.098 94.272c2.203-8.042 12.271-10.693 18.143-4.776l89.64 90.322c5.886 5.93 3.144 16.012-4.933 18.138l-123.285 32.455c-8.076 2.126-15.419-5.302-13.21-13.362l33.645-122.777Z" fill="#EB001B"/><path d="M310.197 140.424c-1.269-4.827 1.624-9.771 6.461-11.046 4.836-1.273 9.786 1.608 11.054 6.435l6.233 23.722c1.268 4.826-1.625 9.773-6.461 11.046-4.837 1.273-9.786-1.609-11.055-6.435l-6.232-23.722ZM340.509 184.506c1.269 4.826-1.625 9.771-6.461 11.045-4.837 1.273-9.786-1.608-11.054-6.434-1.269-4.828 1.624-9.772 6.461-11.045 4.836-1.273 9.786 1.606 11.054 6.434Z" fill="#fff"/><path d="M1118.7 332.901c4.46-3.888 11.45-1.497 12.6 4.308l17.55 88.626c1.15 5.819-4.42 10.701-10.03 8.783l-85.61-29.276c-5.61-1.917-7.04-9.194-2.57-13.091l68.06-59.35Z" fill="#EB001B"/><path d="M1107.74 364.933a6.417 6.417 0 0 1 8.15-3.989c3.36 1.148 5.16 4.796 4.01 8.148l-5.62 16.473c-1.14 3.351-4.79 5.138-8.15 3.989-3.36-1.148-5.16-4.796-4.01-8.148l5.62-16.473ZM1108.36 402.906a6.414 6.414 0 0 1-8.15 3.989c-3.36-1.149-5.16-4.797-4.01-8.149 1.14-3.352 4.79-5.137 8.15-3.989a6.427 6.427 0 0 1 4.01 8.149Z" fill="#fff"/></g><path d="M521.226 138.714a12.343 12.343 0 0 1-4.486-1.174c-1.436-.678-2.535-1.453-3.297-2.325l3.271-4.384c.436.611 1.075 1.143 1.917 1.597.871.429 1.715.671 2.532.725a3.748 3.748 0 0 0 1.725-.281 3.044 3.044 0 0 0 1.344-1.1c.352-.506.553-1.141.604-1.905.057-.843-.065-1.592-.365-2.247a3.323 3.323 0 0 0-1.324-1.557c-.582-.41-1.294-.643-2.137-.699a7.572 7.572 0 0 0-2.355.199c-.751.161-1.646.472-2.682.931l-.039-.002.986-14.7 13.079.878-.371 5.532-8.14-.546-.284 4.228-.592-1.231c.372-.028.731-.043 1.075-.047.344-.003.687.007 1.03.03 1.844.123 3.371.636 4.58 1.537a8.177 8.177 0 0 1 2.746 3.439c.595 1.39.84 2.875.734 4.455-.117 1.739-.617 3.28-1.501 4.623a8.927 8.927 0 0 1-3.463 3.102c-1.398.726-2.927 1.034-4.587.922Zm24.106 1.34a11.615 11.615 0 0 1-4.215-1.077c-1.282-.615-2.4-1.497-3.355-2.646-.927-1.174-1.624-2.61-2.093-4.308-.466-1.725-.623-3.72-.471-5.986.169-2.528.587-4.617 1.254-6.266.668-1.675 1.524-2.994 2.567-3.956a8.34 8.34 0 0 1 3.663-1.937c1.373-.358 2.85-.484 4.431-.378 1.501.101 2.893.459 4.175 1.074a9.265 9.265 0 0 1 3.352 2.686c.955 1.149 1.666 2.586 2.132 4.311.468 1.698.626 3.68.474 5.945-.157 2.345-.582 4.341-1.274 5.988-.693 1.647-1.589 2.976-2.689 3.987a9.681 9.681 0 0 1-3.673 2.095c-1.351.413-2.777.568-4.278.468Zm.328-5.496c1.318.089 2.368-.185 3.151-.82.786-.662 1.364-1.589 1.735-2.781.397-1.191.646-2.524.744-3.999.098-1.449.026-2.75-.214-3.904-.214-1.152-.667-2.082-1.361-2.79-.691-.735-1.696-1.146-3.013-1.234-1.291-.087-2.328.187-3.111.823-.784.635-1.359 1.523-1.727 2.662-.367 1.14-.6 2.434-.697 3.883-.097 1.449-.041 2.776.17 3.981.21 1.205.66 2.187 1.35 2.948.691.734 1.683 1.145 2.973 1.231Zm15.003 6.484 5.023-4.465a83.045 83.045 0 0 0 4.33-4.195c1.308-1.368 2.35-2.7 3.125-3.998.802-1.296 1.245-2.576 1.33-3.84a3.49 3.49 0 0 0-.216-1.523 2.98 2.98 0 0 0-.753-1.201 3.291 3.291 0 0 0-1.216-.796c-.462-.217-.996-.345-1.602-.386-.606-.04-1.152.016-1.638.168a3.261 3.261 0 0 0-1.231.592 3.629 3.629 0 0 0-.814.898 2.533 2.533 0 0 0-.309 1.051c-.056.843.025 1.603.244 2.279a6.21 6.21 0 0 0 1.032 1.776l-3.731 2.965c-.74-.42-1.357-1.083-1.851-1.99a12.085 12.085 0 0 1-1.043-2.808c-.198-.993-.275-1.805-.233-2.437.097-1.449.585-2.806 1.464-4.07.905-1.262 2.149-2.264 3.734-3.004 1.611-.739 3.522-1.034 5.735-.885 1.818.122 3.371.636 4.66 1.543a8.586 8.586 0 0 1 2.904 3.449 8.312 8.312 0 0 1 .862 4.305 10.817 10.817 0 0 1-.784 3.401 16.106 16.106 0 0 1-1.761 3.176 32.477 32.477 0 0 1-2.385 3.015c-.886.973-1.799 1.97-2.741 2.992l-2.557-.926 9.72.652-.371 5.532-18.927-1.27Zm49.573-25.887c3.029.203 5.398.984 7.106 2.342 1.71 1.332 2.484 3.209 2.321 5.633-.12 1.791-.668 3.263-1.645 4.414-.949 1.128-2.208 1.943-3.776 2.446-1.541.479-3.286.653-5.235.522l-.702-3.143c2.397.161 4.496.633 6.295 1.415 1.827.784 3.238 1.831 4.235 3.142.999 1.284 1.441 2.782 1.326 4.494-.106 1.581-.486 2.905-1.14 3.972a7.19 7.19 0 0 1-2.469 2.494c-.993.595-2.105 1.01-3.338 1.245a16.178 16.178 0 0 1-3.783.183l-9.681-.65 1.951-29.082 8.535.573Zm-.126 11.938c1.132.076 1.985-.21 2.558-.86a3.617 3.617 0 0 0 .986-2.276c.067-1.001-.225-1.774-.876-2.321-.625-.545-1.504-.855-2.637-.931l-3.082-.207-.427 6.362 3.478.233Zm-.598 11.868c.843.056 1.614.002 2.313-.163.701-.191 1.265-.51 1.692-.958.428-.474.667-1.08.717-1.817.056-.843-.138-1.491-.584-1.945-.444-.479-1.043-.824-1.796-1.033a9.612 9.612 0 0 0-2.313-.433l-3.28-.22-.424 6.322 3.675.247Zm22.942 7.373c-1.607-.107-3.048-.522-4.323-1.242-1.246-.745-2.207-1.815-2.88-3.21-.674-1.395-.941-3.133-.802-5.214.131-1.949.639-3.608 1.525-4.978.886-1.369 2-2.393 3.342-3.07 1.343-.704 2.74-1.007 4.189-.91 1.712.115 2.983.491 3.814 1.129.858.613 1.554 1.282 2.088 2.006l-.282.656.683-2.495 5.137.345-1.159 17.267-5.531-.371.251-3.754.355 1.215c-.052-.004-.221.144-.505.442-.283.272-.702.601-1.257.988-.527.361-1.183.661-1.966.9-.759.266-1.652.365-2.679.296Zm1.882-4.398c.659.044 1.258-.009 1.797-.158a4.396 4.396 0 0 0 1.441-.776 5.587 5.587 0 0 0 1.126-1.393l.283-4.228a3.704 3.704 0 0 0-.85-1.526 4.056 4.056 0 0 0-1.438-1.049c-.563-.276-1.201-.438-1.912-.485a4.16 4.16 0 0 0-2.255.483 4.37 4.37 0 0 0-1.692 1.554c-.443.685-.695 1.488-.757 2.41-.062.922.093 1.766.465 2.532a4.797 4.797 0 0 0 1.543 1.85 4.434 4.434 0 0 0 2.249.786ZM657.279 148c-1.607-.108-3.018-.573-4.233-1.396-1.213-.848-2.141-2.009-2.783-3.481-.616-1.47-.859-3.18-.728-5.129.131-1.95.637-3.583 1.52-4.899.882-1.317 2.032-2.285 3.449-2.905 1.418-.619 2.996-.87 4.734-.754a9.702 9.702 0 0 1 3.127.726c1.004.411 1.825.996 2.462 1.753l-.116 1.738 1.131-16.872 5.493.368-2.091 31.177-5.532-.371.225-3.359.355 1.215a14.6 14.6 0 0 1-3.13 1.695c-1.14.426-2.435.591-3.883.494Zm2.13-4.541c.738.049 1.389 0 1.955-.147a4.72 4.72 0 0 0 1.56-.768 5.354 5.354 0 0 0 1.244-1.386l.283-4.228a3.524 3.524 0 0 0-.89-1.528c-.393-.45-.899-.801-1.517-1.054a5.48 5.48 0 0 0-1.991-.491 4.423 4.423 0 0 0-2.334.479 4.56 4.56 0 0 0-1.771 1.548c-.469.683-.735 1.485-.797 2.407-.061.922.094 1.766.466 2.532a4.797 4.797 0 0 0 1.543 1.85 4.43 4.43 0 0 0 2.249.786Zm54.65 4.936c-.367.346-.932.692-1.697 1.037a18.56 18.56 0 0 1-2.637.855c-.969.253-1.961.438-2.974.555a13.905 13.905 0 0 1-2.866.125c-2.371-.159-4.482-.644-6.333-1.457-1.849-.838-3.403-1.921-4.664-3.25a12.834 12.834 0 0 1-2.782-4.671c-.597-1.76-.827-3.655-.691-5.683.179-2.661.728-4.939 1.649-6.835.95-1.921 2.152-3.481 3.609-4.68a13.407 13.407 0 0 1 4.977-2.603c1.86-.511 3.778-.7 5.754-.567 1.87.125 3.568.451 5.094.977 1.528.499 2.811 1.088 3.851 1.766l-2.215 5.21c-.457-.295-1.071-.601-1.844-.917a19.08 19.08 0 0 0-2.368-.794c-.804-.239-1.522-.38-2.155-.423-1.58-.106-2.99-.002-4.228.312-1.238.314-2.305.838-3.201 1.571-.87.736-1.555 1.682-2.056 2.839-.499 1.131-.801 2.474-.905 4.028-.092 1.37.062 2.624.462 3.762a8.047 8.047 0 0 0 1.79 2.898 8.913 8.913 0 0 0 2.926 1.943c1.159.475 2.449.76 3.872.855a14.79 14.79 0 0 0 2.263-.007c.694-.086 1.286-.244 1.778-.476l.236-3.517-5.018-.336.371-5.532 10.827.726-.825 12.289Zm13.433 4.314c-1.607-.107-3.048-.521-4.322-1.242-1.247-.745-2.207-1.815-2.881-3.21-.674-1.395-.941-3.132-.801-5.214.13-1.949.639-3.608 1.524-4.978.886-1.369 2-2.393 3.342-3.07 1.344-.704 2.74-1.007 4.189-.91 1.712.115 2.984.491 3.814 1.129.859.614 1.555 1.282 2.088 2.006l-.282.656.683-2.495 5.137.345-1.158 17.267-5.532-.371.252-3.753.355 1.214c-.053-.003-.221.144-.506.442-.283.273-.702.602-1.257.988-.527.361-1.182.661-1.966.9-.758.267-1.652.365-2.679.296Zm1.883-4.398c.658.044 1.257-.008 1.796-.157a4.432 4.432 0 0 0 1.442-.777 5.584 5.584 0 0 0 1.125-1.393l.284-4.228a3.716 3.716 0 0 0-.85-1.526 4.087 4.087 0 0 0-1.438-1.049c-.564-.276-1.201-.437-1.913-.485a4.152 4.152 0 0 0-2.255.484 4.367 4.367 0 0 0-1.692 1.553c-.443.685-.695 1.488-.757 2.41-.062.922.093 1.766.465 2.532a4.798 4.798 0 0 0 1.543 1.85 4.434 4.434 0 0 0 2.25.786Zm19.228-19.628 5.531.371-.503 7.508 4.188.281-.289 4.307-4.188-.281-.875 13.04-5.532-.372.875-13.039-2.687-.18.289-4.307 2.687.18.504-7.508Zm21.517 26.886c-2.107-.141-3.872-.657-5.294-1.546-1.396-.887-2.429-2.055-3.099-3.502-.671-1.448-.945-3.08-.823-4.898.117-1.738.67-3.276 1.659-4.612.989-1.336 2.262-2.362 3.818-3.078 1.558-.742 3.259-1.051 5.103-.928 2.477.167 4.456 1.027 5.94 2.582 1.511 1.53 2.413 3.668 2.705 6.413l-13.721 3.366-1.023-3.085 9.94-2.628-1.18.437a3.93 3.93 0 0 0-1.027-1.855c-.491-.562-1.277-.879-2.357-.952-.817-.054-1.554.094-2.213.447-.631.328-1.141.837-1.531 1.525-.362.664-.575 1.47-.639 2.418-.072 1.08.064 2.002.41 2.766a4.005 4.005 0 0 0 1.511 1.729c.66.415 1.412.65 2.255.707a4.862 4.862 0 0 0 1.76-.2 9.226 9.226 0 0 0 1.755-.716l2.174 4.274c-.958.465-1.987.82-3.088 1.063-1.075.246-2.087.337-3.035.273Zm27.075-16.005 3.197 9.145-1.033.01 3.921-8.747 5.374.36-9.011 17.773-4.764-11.83-5.826 11.12-6.636-18.823 5.374.361 3.544 9.883-1.878-.404 3.812-7.127-.776-2.037 4.702.316Zm20.782 19.215c-1.607-.108-3.048-.522-4.322-1.242-1.247-.745-2.207-1.815-2.881-3.21-.674-1.395-.941-3.133-.801-5.214.131-1.949.639-3.609 1.524-4.978.886-1.369 2-2.393 3.342-3.07 1.344-.704 2.74-1.007 4.189-.91 1.712.115 2.984.491 3.814 1.129.859.613 1.555 1.282 2.088 2.006l-.282.655.683-2.494 5.137.345-1.158 17.267-5.532-.371.252-3.754.355 1.215c-.053-.004-.221.144-.506.442-.283.272-.702.601-1.257.988-.527.361-1.182.661-1.966.9-.758.266-1.652.365-2.679.296Zm1.883-4.398a5.383 5.383 0 0 0 1.797-.158 4.416 4.416 0 0 0 1.441-.776 5.584 5.584 0 0 0 1.125-1.393l.284-4.228a3.716 3.716 0 0 0-.85-1.526 4.074 4.074 0 0 0-1.438-1.049c-.564-.276-1.201-.438-1.913-.485a4.16 4.16 0 0 0-2.255.483 4.37 4.37 0 0 0-1.692 1.554c-.443.685-.695 1.488-.757 2.41-.062.922.093 1.766.465 2.532a4.806 4.806 0 0 0 1.543 1.85 4.434 4.434 0 0 0 2.25.786Zm16.767 13.508 13.213-24.794 4.979.334-12.858 24.818-5.334-.358Zm5.174-7.909-7.292-17.913 6.203.416 5.542 15.018-4.453 2.479Z" fill="#BCBCBC"/><circle cx="945" cy="167" r="21" fill="#EB001B"/><circle cx="934" cy="296" r="21" fill="#EB001B"/><circle cx="924" cy="426" r="21" fill="#EB001B"/><circle cx="913" cy="555" r="21" fill="#EB001B"/><circle cx="904" cy="684" r="21" fill="#EB001B"/></g></g></g><defs><clipPath id="a"><path fill="#fff" d="M0 0h1400v697H0z"/></clipPath><clipPath id="b"><path fill="#fff" transform="translate(-.727 -3)" d="M0 0h1401.27v734H0z"/></clipPath><clipPath id="c"><path fill="#fff" transform="translate(-1 -36.864)" d="M0 0h1402v735.865H0z"/></clipPath></defs></svg>