<?xml version="1.0" encoding="utf-8"?>
<!-- Generator: Adobe Illustrator 24.1.3, SVG Export Plug-In . SVG Version: 6.00 Build 0)  -->
<svg version="1.1" xmlns="http://www.w3.org/2000/svg" xmlns:xlink="http://www.w3.org/1999/xlink" x="0px" y="0px"
	 viewBox="0 0 1920 1080" style="enable-background:new 0 0 1920 1080;" xml:space="preserve">
<style type="text/css">
	.st0{fill:#F0FFFD;}
	.st1{fill:#CDE8E4;}
	.st2{fill:#9CD3CC;}
	.st3{fill:#73C6BE;}
	.st4{fill:#FBFDFC;}
	.st5{fill:#445163;}
	.st6{fill:#1A3141;}
	.st7{fill:#FF7443;}
	.st8{fill:#F7F7F7;}
	.st9{fill:#DDAF9F;}
	.st10{fill:#FFA476;}
	.st11{fill:#FFD2C0;}
	.st12{fill:#EAAF9B;}
	.st13{opacity:0.3;}
	.st14{fill:#172A38;}
	.st15{fill:#5C6A7A;}
	.st16{fill:#FFFFFF;stroke:#0F0D0C;stroke-miterlimit:10;}
	.st17{fill:none;stroke:#0A0909;stroke-miterlimit:10;}
	.st18{fill:#F4C1B0;}
	.st19{fill:#EFE7E4;stroke:#1C1715;stroke-miterlimit:10;}
	.st20{fill:#D17F62;}
	.st21{fill:#1A2E35;}
	.st22{opacity:0.8;fill:#FFFFFF;}
	.st23{opacity:0.2;}
	.st24{fill:#007CFF;}
	.st25{fill:none;stroke:#D17046;stroke-linecap:round;stroke-linejoin:round;stroke-miterlimit:10;}
	.st26{fill:#FF9578;}
	.st27{fill:#0E1B2D;}
	.st28{fill:#FFFFFF;}
	.st29{fill:none;stroke:#0E1B2D;stroke-linecap:round;stroke-linejoin:round;stroke-miterlimit:10;}
	.st30{fill:none;stroke:#264066;stroke-linecap:round;stroke-linejoin:round;stroke-miterlimit:10;}
	.st31{fill:#D67756;}
	.st32{fill:#EFE7E4;stroke:#8C6F67;stroke-miterlimit:10;}
	.st33{fill:#749193;stroke:#1B2323;stroke-miterlimit:10;}
	.st34{fill:none;stroke:#94DDD8;stroke-width:12;stroke-linecap:round;stroke-linejoin:round;stroke-miterlimit:10;}
</style>
<g id="BG">
	<path class="st0" d="M1183.03,969.6l356.02,1.9c0,0,29.71-26.34,71.91-108.16c34.04-66,54.07-178.56,47.94-253.64
		c-6.14-75.09-77.61-205.39-135.84-247.85c-78.13-56.98-125.23-15.54-145.31-8.87c-60.8,20.18-125.25-11.12-180.94-44.12
		c-121.9-72.22-243.42-158.73-382.25-171.72c-62.45-5.84-134.84,9.88-166.2,67.93c-16.42,30.38-21.83,71.77-51.25,87.32
		c-12.6,6.66-27.18,6.86-41.21,7.72c-60.08,3.7-120.19,22.71-168.83,60.61s-85.43,97.72-101.62,159.72
		c-12.22,46.8-36.71,172.34,4.44,276.34C321.59,876.88,405.3,969.6,405.3,969.6H1183.03z"/>
</g>
<g id="dark_smoke">
	<path class="st1" d="M338,971c-64-18-109.87-118.58-112-182c-1.05-31.25,17.67-76.53,40.7-95.22
		c31.36-25.44,75.36-9.9,114.39-12.54c35.73-2.41,70.19-22.02,92.41-52.58c20.46-28.15,30.1-63.53,41.06-97.39
		c10.96-33.86,24.65-68.54,50.34-91.05c25.69-22.51,66.63-28.17,90.49-3.39c16.59,17.23,20.97,43.65,28.65,67.17
		c7.69,23.52,23.6,48.3,46.52,48.65c10.04,0.15,19.58-4.58,28.25-10.09c29.7-18.87,53.06-47.31,79.04-71.85
		c25.98-24.54,57.1-46.18,91.49-46.56s70.66,28.2,70.19,65.65c-0.28,22.23-12.61,41.85-19.21,62.89c-6.6,21.04-4.6,49.6,14.02,58.72
		c9.73,4.76,21.1,2.55,31.25-1.01c16.01-5.62,31.08-14.41,44.24-25.81c9.36-8.1,18.17-17.77,29.6-21.56
		c11.44-3.79,26.57,1.34,29.22,14.03c3.03,14.5-10.08,33.72,1.07,42.31c3.51,2.7,8.14,2.7,12.44,2.58
		c31.91-0.87,73.07,4.85,80.74,38.59c4.3,18.92-4.51,41.34,5.93,57.18c12.51,18.97,39.14,11.24,60.55,12.52
		c33.13,1.97,59.83,29.83,80.05,58.49c20.22,28.65,38.37,60.92,67.13,78.95c45.7,28.66,102.96,13.08,155.45,18.6
		c16.78,1.76,34.4,6.4,46.08,19.63c11.68,13.24,24.79,55.25,11.91,67.08"/>
	<path class="st2" d="M338.8,967.83c-41.85-35.32-67.87-88.75-69.86-143.48c-0.98-26.97,5.23-56.87,26.88-73
		c29.47-21.96,70.82-8.55,107.5-10.82c33.58-2.08,65.96-19,86.84-45.38c19.23-24.29,28.28-54.83,38.59-84.05
		c10.3-29.22,23.17-59.15,47.31-78.58c24.14-19.43,62.62-24.31,85.04-2.93c15.59,14.87,19.7,37.67,26.93,57.97
		c7.22,20.29,22.17,41.68,43.71,41.99c9.43,0.13,18.4-3.96,26.55-8.71c27.91-16.28,49.87-40.83,74.28-62
		c24.41-21.18,53.67-39.85,85.98-40.19c32.32-0.33,66.41,24.34,65.96,56.65c-0.27,19.19-11.85,36.12-18.05,54.28
		s-4.32,42.81,13.18,50.68c9.14,4.11,19.83,2.2,29.37-0.87c15.05-4.85,29.21-12.43,41.58-22.27c8.79-6.99,17.07-15.33,27.82-18.6
		s24.97,1.15,27.46,12.11c2.85,12.52-9.47,29.1,1.01,36.51c3.3,2.33,7.65,2.33,11.69,2.23c29.99-0.75,68.67,4.19,75.88,33.31
		c4.04,16.33-4.24,35.68,5.57,49.34c11.75,16.37,36.78,9.7,56.91,10.8c31.14,1.7,56.23,25.75,75.23,50.47
		c19,24.73,36.06,52.57,63.08,68.13c42.95,24.73,96.76,11.29,146.09,16.06c15.77,1.52,32.33,5.52,43.31,16.94
		c10.98,11.42,13.32,32.14,1.21,42.36"/>
</g>
<g id="Smoke">
	<g>
		<path class="st3" d="M467.49,968.67c-76.74-54.1-19.72-99.95,34.67-92.18c-10.99-72.77,60.07-33.2,60.07-33.2
			c-15.16-90.73,68.22-47.15,68.22-47.15c-52.11-95.69,37.23-107.06,37.23-107.06c122.89,72.01,141.84,133.95,141.84,133.95
			c48.32-74.26,71.06,3.97,71.06,3.97c117.48-111.39,142.12,11.33,141.17,16.29c78.64-16.83,25.58,75.07,25.58,75.07
			c69.16-6.63,46.94,50.31,46.94,50.31H467.49z"/>
	</g>
</g>
<g id="flash">
	<path class="st4" d="M715.75,968.67c-56.95-21.89-130.43-45.93-130.43-45.93C716.67,952.29,759.64,961,658.8,756.92
		c142.07,244.98,152.61,121.65,155.46,53.78c-1.89,141.59,61.8,76.05,146.23,0.48C851.21,929.1,856.9,944.89,937.43,939.83
		c-62.53,18.47-58.63,26.52-32.42,28.85C779.32,968.67,715.75,968.67,715.75,968.67z"/>
	<path class="st4" d="M658.8,876.49c-138.87-140.3-221.31-102.2-221.31-102.2C514.24,764.33,658.8,876.49,658.8,876.49z"/>
	<path class="st4" d="M875.26,737.19c-1.42-160.19,79.59-196.66,79.59-196.66C890.9,591.22,875.26,737.19,875.26,737.19z"/>
	<path class="st4" d="M915.05,791.65c17.88-58.57,70.25-57.74,92.4-54.46C964.43,733.71,927.95,759.66,915.05,791.65z"/>
	<path class="st4" d="M555.46,644.93c-57.02-52.5-106.6-42.56-106.6-42.56C495.91,605.07,555.46,644.93,555.46,644.93z"/>
</g>
<g id="Rocket_smoke">
	<path class="st2" d="M651.3,440.09l33.39-6.82c0,0,22-37.41,9.43-60.65c0,0,45.85-32.21,12.13-58.74c0,0,63.71-57.1,8.75-85.45
		c6.7-0.24,16.25-43.58-20.09-64.18c-58.95-33.42-168.91,20.02-203.42,62.17c-13.57,16.57-50.04,84.62,11.08,88.89
		c0,0-21.32,72.49,64.45,93.53C567.02,408.84,593.17,456.53,651.3,440.09z"/>
</g>
<g id="Rocket">
	<g>
		<g>
			<path class="st5" d="M637.26,557.23c-32.9,8.66-67.59-14.77-82.66-71.99c-9.06-34.42-11.01-83.43-1.12-106.18
				c0.01-0.02,0.02-0.05,0.03-0.07c0.01-0.03,0.02-0.06,0.04-0.08c0,0,0,0,0,0c0.33-0.73,0.73-1.19,1.23-1.32l0,0
				c3.88-1.02,12.71,18.46,19.9,36.66c7.58,19.19,21.4,34.78,38.57,43.31l0,0l9.96,79.54C641.49,548.11,653.91,552.85,637.26,557.23
				z"/>
			<path class="st6" d="M549.28,456.96c0.3-0.08,0.49-0.39,0.44-0.74c-3.64-28.21-3.18-59.44,4.31-76.75l0.09-0.21
				c0.25-0.57,0.53-0.9,0.83-0.98c2.12-0.56,8.25,8.66,19.13,36.22c7.67,19.42,21.36,34.86,38.57,43.53l9.79,78.17l1.94,2.4
				c2.21,1.32,4.34,2.55,6.26,3.66c7.47,4.33,13.93,8.07,13.79,10.34c-0.05,0.85-1.16,2.12-5.88,3.53l0.97,1.2
				c4.19-1.31,6.07-2.71,6.18-4.55c0.2-3.25-5.34-6.46-14.53-11.78c-2.25-1.3-4.78-2.77-7.39-4.34l-9.97-79.58l-0.35-0.17
				c-17.06-8.47-30.63-23.71-38.21-42.91c-2.9-7.35-7.21-17.77-11.22-25.61c-5.65-11.04-8.09-11.85-9.44-11.49
				c-0.46,0.12-0.87,0.43-1.21,0.93l-0.06-0.06l-0.38,0.86l0.57,0.32l0,0l-0.59-0.26l-0.02,0.04c-7.62,17.52-8.11,49.11-4.44,77.61
				C548.53,456.76,548.91,457.06,549.28,456.96L549.28,456.96z"/>
			<path class="st5" d="M740.09,530.15c32.9-8.66,51.55-46.15,36.48-103.36c-9.06-34.42-31.52-78.03-51.33-92.96
				c-0.02-0.02-0.04-0.03-0.06-0.05c-0.02-0.02-0.05-0.04-0.07-0.06c0,0,0,0,0,0c-0.64-0.48-1.22-0.68-1.72-0.55l0,0
				c-3.88,1.02-1.97,22.33,0.74,41.7c2.86,20.44-1.49,40.81-12.23,56.69l0,0l30.51,74.13C731.92,524.3,723.44,534.53,740.09,530.15z
				"/>
			<g>
				<path class="st6" d="M723.2,332.49c0.46-0.12,0.97-0.05,1.51,0.21l0.03-0.1l0.84,0.65c20.81,15.68,42.99,60.67,51.6,93.37
					c7.18,27.24,7.08,51.58-0.28,70.37c-6.81,17.4-19.82,29.42-36.63,33.85c-5.66,1.49-8.57,1.37-9.73-0.41
					c-1.78-2.73,1.47-8.26,6.84-17.41c1.31-2.24,2.8-4.76,4.3-7.42l-30.52-74.17l0.22-0.32c10.67-15.78,14.98-35.72,12.12-56.17
					c-1.1-7.83-2.48-19.01-2.85-27.81C720.12,334.75,721.85,332.85,723.2,332.49z M724.95,334.45l-0.18-0.13
					c-0.5-0.37-0.91-0.52-1.21-0.44c-2.12,0.56-2.92,11.61,1.19,40.94c2.89,20.68-1.41,40.86-12.12,56.88l30.5,74.1l-0.18,0.31
					c-1.57,2.78-3.12,5.42-4.49,7.75c-4.37,7.45-8.15,13.88-6.91,15.79c0.51,0.78,2.37,1.38,8.35-0.19
					c35.82-9.43,49.97-49.67,36.05-102.51C767.42,394.53,745.5,349.97,724.95,334.45z"/>
			</g>
			<path class="st7" d="M775.8,906.91c6.11,4.74,13.38,3.15,16.72-3.68c14.88-30.39,48.73-121.4,10.83-265.3
				c-18.39-69.84-63.38-175.2-92.1-216.8c-6.46-9.36-17.1-13.78-26.94-11.19l-57.73,15.2c-9.84,2.59-16.92,11.68-17.94,23
				c-4.51,50.36,8.24,164.21,26.63,234.04C670.21,814.82,747.61,885,775.8,906.91z"/>
			<path class="st5" d="M755.63,797.94c-21.35,5.62-40.34,14.91-55.85,26.49c30.06,43.7,60.5,70.41,76.03,82.47
				c6.11,4.74,13.38,3.15,16.72-3.68c8.47-17.3,23.08-54.26,27.11-109.43C799.81,790.95,777.86,792.09,755.63,797.94z"/>
			<g>
				<path class="st6" d="M789.92,594.02c-0.3,0.14-0.44,0.52-0.32,0.88c5.16,15.26,9.64,29.89,13.15,43.19
					c37.52,142.48,4.96,232.62-10.78,264.77c-1.46,2.99-3.79,5.03-6.56,5.76c-3.04,0.8-6.33-0.01-9.26-2.29
					c-7.46-5.8-17.56-14.31-29.05-25.75c-0.3-0.3-0.77-0.22-0.93,0.16l0,0c-0.12,0.27-0.05,0.61,0.16,0.82
					c12.03,12.01,22.29,20.59,29.14,25.92c3.25,2.52,6.91,3.42,10.3,2.53c3.1-0.82,5.7-3.09,7.33-6.41
					c7-14.3,19.6-45.05,25.27-90.31c6.81-54.32,1.97-113.38-14.4-175.52c-3.51-13.33-8.01-28-13.18-43.3
					C790.65,594.08,790.25,593.87,789.92,594.02L789.92,594.02z"/>
				<path class="st6" d="M611.53,541.24c0.38,0.03,0.67-0.32,0.63-0.74c-3.56-36.68-4.85-70.29-2.88-92.24
					c0.99-11.09,7.86-19.89,17.48-22.42l56.77-14.95c0.34-0.09,0.53-0.47,0.43-0.85l0,0c-0.1-0.38-0.46-0.62-0.79-0.53l-56.77,14.95
					c-10.13,2.67-17.34,11.92-18.39,23.58c-1.97,22.03-0.68,55.74,2.89,92.53C610.94,540.93,611.21,541.22,611.53,541.24
					L611.53,541.24z"/>
			</g>
			<path class="st5" d="M639.08,355.39L639.08,355.39c6.75-1.78,25.22,46.14,27.23,53.8l12.54,47.61
				c2.02,7.66,13.95,75.16,7.2,76.94l0,0c-6.75,1.78-29.61-62.84-31.63-70.5l-12.54-47.61
				C639.86,407.96,632.33,357.16,639.08,355.39z"/>
			<g>
				
					<ellipse transform="matrix(0.967 -0.2547 0.2547 0.967 -154.1888 209.6335)" class="st6" cx="732.45" cy="700.25" rx="43.52" ry="42.04"/>
				
					<ellipse transform="matrix(0.967 -0.2547 0.2547 0.967 -154.1893 209.6345)" class="st8" cx="732.45" cy="700.25" rx="31.41" ry="30.35"/>
				<path class="st6" d="M756.08,679.85c-0.24,0.18-0.27,0.52-0.08,0.73c2.92,3.3,5.12,7.29,6.31,11.8
					c4.19,15.91-5.8,32.38-22.26,36.72c-1.27,0.34-2.55,0.59-3.82,0.76c-0.28,0.04-0.49,0.28-0.46,0.56l0,0
					c0.03,0.29,0.29,0.49,0.59,0.45c1.32-0.18,2.64-0.44,3.96-0.79c17.03-4.48,27.36-21.52,23.02-37.97
					c-1.23-4.67-3.51-8.79-6.53-12.2C756.62,679.71,756.3,679.68,756.08,679.85L756.08,679.85z"/>
				<g>
					<path class="st6" d="M741.51,740.78c-13.32,3.02-26.7-0.37-36.55-8.17c-0.2-0.16-0.5-0.15-0.69,0.04l0,0
						c-0.22,0.21-0.21,0.56,0.03,0.75c10.58,8.37,25.13,11.78,39.39,7.9c20.92-5.71,34.4-25.19,32.55-45.48
						c-0.03-0.28-0.27-0.52-0.57-0.49c-0.3,0.03-0.51,0.28-0.49,0.56C777.06,716.3,763.03,735.9,741.51,740.78z"/>
					<path class="st6" d="M689.46,694.68c0.3,0.08,0.61-0.12,0.66-0.42c2.68-15.88,14.73-29.69,31.76-34.17
						c1.54-0.41,3.09-0.72,4.63-0.96c0.29-0.04,0.49-0.31,0.45-0.59l0,0c-0.05-0.27-0.31-0.46-0.59-0.42
						c-1.58,0.24-3.16,0.57-4.74,0.98c-17.45,4.59-29.79,18.74-32.54,35.01C689.03,694.37,689.2,694.62,689.46,694.68L689.46,694.68
						z"/>
				</g>
			</g>
			<g>
				<path class="st6" d="M754.86,797.36c2.01-0.53,4.05-1.02,6.14-1.48c0.34-0.07,0.69,0.18,0.78,0.57
					c0.09,0.39-0.11,0.77-0.46,0.83c-35.65,7.77-60.9,27.54-61.15,27.74c-0.28,0.22-0.68,0.14-0.89-0.19
					c-0.22-0.33-0.16-0.77,0.11-0.99C699.62,823.65,722.22,805.95,754.86,797.36z"/>
			</g>
			<path class="st6" d="M699.37,824.84c6.27,9.31,13.27,19.01,19.94,26.78c0.25,0.29,0.66,0.32,0.9,0.05
				c0.25-0.26,0.24-0.71-0.01-1.01c-6.63-7.73-13.6-17.38-19.84-26.66L699.37,824.84z"/>
		</g>
	</g>
</g>
<g id="Coat_B">
	<g>
		<path class="st9" d="M1199.71,719.56c0,0,78.81-0.26,226.8,13.82l-4.16-130.37l-3.63-82.56l-122.51-33.68l-45.02,112.84
			L1199.71,719.56z"/>
	</g>
</g>
<g id="L_hand">
	<g>
		<path class="st10" d="M1225.95,420.33c-3.29-2.69-6.14-5.54-8.6-8.61c-2.53-3.1-4.64-6.01-6.77-9.72l12.82-9.86
			c2.16,1.65,4.77,3.76,7.25,5.34"/>
		<g>
			<path class="st10" d="M1225.23,394.53l-18.07-20.08l-8.49,26.27c0,0,14.07,14.3,21.07,5.21L1225.23,394.53z"/>
			<polygon class="st10" points="1180.44,373.78 1188.01,394.6 1198.68,400.72 1207.16,374.45 			"/>
		</g>
		<path class="st11" d="M1258.76,387.61c-0.09,0.17-28.83,5.82-28.83,5.82l-12.92,23.01c0,0,14.41,20.4,38.53,17.03
			c8.89-1.24,16.11-5.54,22.04-11.15C1283.43,412.86,1272.98,387.77,1258.76,387.61z"/>
	</g>
</g>
<g id="L_arm">
	<g>
		<path class="st11" d="M1311.46,291.7c-29.37,14.4-68.68,84.98-74.73,97.07c-7.05,23.12,23.04,44.82,40.85,33.55
			c10.17-9.61,16.55-23.07,20.95-31.57c5.42-10.47,17.2-30.91,22.96-41.2C1328.7,336.67,1337.26,279.05,1311.46,291.7z"/>
		<path class="st12" d="M1271.58,408.11c4.21-6.52,24.41-12.46,26.95-17.36c4.38-8.47,12.93-23.46,19.08-34.33l10.82-26.32
			l-4.4-26.4C1285.57,371.26,1265.15,403.39,1271.58,408.11z"/>
	</g>
</g>
<g id="L_thai">
	<g>
		<path class="st5" d="M1379.46,465.16h-83.68c0,0-41.89,202.72-51.72,260.57c-1.4,54.91,54.45,61.9,63.47,25.67
			c0.09-0.33,0.19-0.68,0.29-1.01C1325.98,685.79,1379.46,465.16,1379.46,465.16z"/>
		<path class="st13" d="M1346.54,530.89c-16.17,33.97-18,91.71-11.43,115.37c9.92-38.86,21.29-85.33,30.04-121.48
			C1362.01,515.51,1356.36,510.23,1346.54,530.89z"/>
	</g>
</g>
<g id="L_leg">
	<g id="shoe_00000163765701554123091140000016341383571297497996_">
		<g>
			<path class="st14" d="M1212.38,919.21l27.34,7.46c0.99,0.27,1.52,1.06,1.27,1.89l-5.94,25.31c-0.59,1.92-3.39,3.14-5.66,2.48
				c-9.47-2.74-14.44-2.88-26.46-6.16c-7.4-2.02-38.23-12.96-48.45-15.75c-9.99-2.73-6.66-16.52-2.03-16.11
				c20.74,1.85,46.64,3.66,55.26,0.99C1209.26,918.84,1210.93,918.81,1212.38,919.21z"/>
		</g>
	</g>
	<g id="Layer_38">
		<g>
			<path class="st5" d="M1244.06,725.73c-0.08,0.47-0.16,0.94-0.23,1.39c-10.26,61.23-38.06,192.6-38.06,192.6l39.77,11.52
				c0,0,45.04-119.97,62-179.84C1319.46,708.5,1265.93,685.23,1244.06,725.73z"/>
			<polygon class="st15" points="1246.58,931.93 1202.31,921.67 1203.16,906.5 1253.01,921 			"/>
		</g>
	</g>
</g>
<g id="R_thai">
	<path class="st5" d="M1414.09,742.64c0.23-31.97-0.38-49.44,0.36-66.82c2.8-66.34,10.07-212.44,10.07-212.44h-83.78
		c0,0,0.74,150.47,4.54,206.85c1.2,17.79,3.78,47.45,6.85,80.66c4.95,18.52,21.43,24.25,30.55,23.17
		C1402.46,771.73,1413.8,766.42,1414.09,742.64z"/>
</g>
<g id="R_leg">
	<g id="shoe">
		<g>
			<path class="st14" d="M1381.27,934.13l28.75-0.2c1.05-0.01,1.84,0.6,1.91,1.46l3.89,25.59c0.16,1.98-2.03,3.88-4.44,3.86
				c-10.01-0.08-14.78,1.11-27.42,1.2c-7.78,0.05-41.14-2.12-51.88-2.05c-10.5,0.07-12.53-13.9-7.99-14.74
				c20.37-3.77,45.62-8.94,52.8-13.76C1378.17,934.61,1379.74,934.14,1381.27,934.13z"/>
		</g>
	</g>
	<g id="Layer_36">
		<g>
			<path class="st5" d="M1381.51,729.84c-9.18,0-18.62-1.16-29.39,21.04c7.58,81.99,18.13,185.59,18.13,185.59h42.89
				c0,0-0.66-102.22-0.08-182.75C1407.11,736.82,1393.18,730.57,1381.51,729.84z"/>
			<polygon class="st15" points="1414.87,936.47 1368.53,936.47 1365.96,922.78 1417.11,924.92 			"/>
		</g>
	</g>
</g>
<g id="Body">
	<g id="Body_00000015345708109092197370000003235034334884615069_">
		<g>
			<g>
				<g>
					<path class="st16" d="M1460.08,316.46c-10.68,25.82-18.71,52.48-24.93,77.74c-4.54,18.49-8.06,36.24-10.86,52.38
						c-6.57,37.84-9.22,67.01-11.53,76.7c-18.78-3.77-89.54-18.01-128.12-25.79c-1.09-140.18,41.02-206.87,41.02-206.87
						s14.64-1,31.38,0.19c2.21,0.14,4.44,0.36,6.71,0.6c14.67,1.59,38.26,6.89,54.47,10.96c3.41,0.86,6.84,1.82,10.18,2.81
						C1445.36,310.26,1460.08,316.46,1460.08,316.46z"/>
				</g>
				<path class="st5" d="M1366.53,317.73c-5.01,8.97-11.92,15.86-20.53,40.07c0.56,5.51,1.37,11.09,2.43,16.72
					c3.95-4.54,8.1-9.04,12.44-13.49c6.25-23.71,5.08-30.52,10.74-42.1L1366.53,317.73z"/>
				<polygon class="st5" points="1365.33,325.52 1363.24,312.6 1372.64,310.55 1378.36,315.82 				"/>
				<path class="st7" d="M1428.4,305.19c-31.76,21.89-58.75,44.92-79.96,69.33c-5.63-29.87-4.32-57.98,5.61-83.9
					c-15.45-0.88-28.39,0-28.39,0s-57.83,131.09-56.74,271.27c38.58,7.78,139.06,11.09,157.84,14.86
					c2.31-9.69-9.04-92.33-2.47-130.17c2.8-16.15,6.32-33.9,10.86-52.38c6.22-25.27,14.26-51.93,24.93-77.75
					C1460.08,316.46,1445.36,310.26,1428.4,305.19z"/>
				<path class="st17" d="M1348.44,374.53c0,0,50.94-54.12,73.92-64.79"/>
				<path class="st17" d="M1352.84,292.83c0,0-12.72,35.98-5.68,76.33"/>
				<path class="st17" d="M1272.24,561.73c0,0,59.87,9.34,81.9,8.19"/>
			</g>
			<path class="st17" d="M1364.87,756.83c23.96,1.16,47.15,0.7,64.07-2.73"/>
		</g>
	</g>
	<g id="R_coat">
		<g>
			<g>
				<path class="st11" d="M1430.63,303.69c0,0-69.7,57.69-71.65,190.51c-1.95,132.82,3.96,262.58,3.96,262.58s28.07,0.75,38,0.25
					c6.46-0.32,27.56-3.52,27.56-3.52s13.41-60.29,6.98-210.59c-5.85-136.77,25.94-193.35,35.22-212.07
					c1.72-3.46-8.04-16.09-11.65-17.44C1452.02,310.79,1430.63,303.69,1430.63,303.69z"/>
				<path class="st17" d="M1430.63,303.69c0,0-53.64,46.52-68.61,149.9c-4.49,31.04-2.94,64.07-3.14,104.48
					c-0.46,94.17,4.06,198.72,4.06,198.72"/>
			</g>
			<path class="st12" d="M1414.69,397.48l-33.69,38.83c0,0,24.44,42.02,52.24,61.62c9.04-50.85,1.09-140.93,3.03-151.66
				C1432.29,344.43,1414.69,397.48,1414.69,397.48z"/>
			<path class="st18" d="M1418.44,556.64c0,0-0.08,38.73-0.5,41.8c-0.42,3.07-41.98,9.88-41.98,9.88l-1.75-48.15L1418.44,556.64z"/>
			<polyline class="st17" points="1375.41,540.02 1421.38,539.01 1421.05,556.67 1381.35,557.5 			"/>
		</g>
	</g>
	<g id="L_coat">
		<g>
			<g>
				<path class="st11" d="M1353.63,289.97c0,0-21.81,19.13-34.33,105.96c-12.52,86.83-75.67,225.69-101.94,344.03l-29.99-13.17
					c0,0,26.86-97.37,59.38-198.12c31.44-97.37,30.77-73.23,38.63-130.13c6.3-45.68,21.74-90.81,29.14-106.43
					c1.72-3.64,13.45-5.98,17.48-5.94L1353.63,289.97z"/>
				<path class="st17" d="M1318.36,397.32c0,0-6.85,50.1-25.09,99.69c-18.24,49.59-73.85,220.1-75.76,241.71"/>
			</g>
			<path class="st17" d="M1189.4,723.43c0,0,59.11-210.04,79.02-257.94"/>
			<path class="st18" d="M1265.52,531.35c0,0-11.93,36.85-13.27,39.64c-1.34,2.79-16.2-2.11-16.2-2.11l12.89-40.94L1265.52,531.35z"
				/>
			<polyline class="st17" points="1254.09,509.36 1273.72,515.47 1268,532.18 1248.04,523.12 			"/>
			<path class="st17" d="M1312.27,307.62c0,0-23.98,49.47-29.66,106.85"/>
		</g>
	</g>
</g>
<g id="Neck">
	<g>
		<path class="st10" d="M1422.91,245.97c-5.37,13.33-8.61,45.6-8.61,45.6s1.83,7.86,3.92,10.81c-10.76,7.45-25.58,12.65-45.18,8.26
			c-15.01-3.36-13.76-14.06-9.28-19.22c5.43-0.19,12.73-3.26,12.73-3.26s6.94-14.84,10.38-25.85L1422.91,245.97z"/>
		<g>
			<path class="st19" d="M1372.64,310.55c0,0,5.57,11.84,10.8,20.41c10.98-3.18,35.76-15.77,37.58-28.98
				c-0.49-4.07-4.24-18.79-4.24-18.79S1398.44,305.38,1372.64,310.55z"/>
		</g>
		<g>
			<path class="st19" d="M1372.64,310.55c0,0-15,4.18-21.79,11.13c-1.18-15.12,8.97-29.34,12.22-31.45
				c6.53-2.43,16.34-7.99,16.34-7.99S1361.87,305.34,1372.64,310.55z"/>
		</g>
		<path class="st20" d="M1421.75,247.14l-36.08,14.62c0.2,3.39-4.23,13.62-4.61,16.84c7.67,0.42,36.06-8.18,36.06-8.18
			S1422.04,249.08,1421.75,247.14z"/>
	</g>
</g>
<g id="R_arm">
	<g>
		<path class="st11" d="M1488.13,409.14c-2.26-32.97-4.55-95.13-32.96-93.21c-25.76,1.73-23.82,20.71-23.88,30.12
			c-0.29,46.37,5.21,79.75,9.6,88.34c6.13,27.46,39.28,41.9,44.9,22.83C1489.9,443.44,1489.24,425.35,1488.13,409.14z"/>
		<path class="st17" d="M1430.98,362.2c0,0,2.35,51.36,6.95,63.45"/>
		<path class="st17" d="M1479.02,342.21c0,0,9.83,37.72,9.84,85.68"/>
	</g>
</g>
<g id="R_hand">
	<g id="pen">
		<g>
			<path class="st21" d="M1322.04,430.64l-7.21,2.7l2.69-7.22l45.09-45.19c1.57-1.57,3.86-1.84,5.11-0.6l0,0
				c1.25,1.25,0.99,3.53-0.58,5.11L1322.04,430.64z"/>
			<path class="st22" d="M1322.04,430.64l-7.21,2.7l2.69-7.22l45.09-45.19c1.57-1.57,3.86-1.84,5.11-0.6l0,0
				c1.25,1.25,0.99,3.53-0.58,5.11L1322.04,430.64z"/>
			<path class="st23" d="M1362.61,380.94l-45.09,45.19l-2.69,7.22l52.88-53C1366.47,379.1,1364.18,379.37,1362.61,380.94z"/>
			
				<rect x="1357.69" y="385.57" transform="matrix(0.7063 -0.7079 0.7079 0.7063 123.9957 1076.4169)" class="st24" width="3.25" height="6.39"/>
		</g>
	</g>
	<g id="fingers">
		<g>
			<path class="st10" d="M1380.98,413.46l-18.41-18.49l-9.83,30.31c0,0,18.14,11.63,25.34,2.6L1380.98,413.46z"/>
			<path class="st10" d="M1350.14,389.69c0,0-3.81-2.6-13.39,6.5c-9.58,9.11-7.63,17.71-7.63,17.71l23.62,11.39l12.03-28.39
				L1350.14,389.69z"/>
			<path class="st17" d="M1331.7,408.68c3.6-0.3,7.3,0.86,10.08,3.16"/>
			<path class="st17" d="M1335.43,400.88c2.89-0.06,5.79,0.89,8.08,2.64"/>
			<path class="st17" d="M1342.6,394.87c2.33,0.54,4.53,1.63,6.38,3.15"/>
		</g>
	</g>
	<g id="hand">
		<g>
			<polygon class="st10" points="1372.72,407.36 1404.49,421.69 1390.55,442.65 1360.86,425.53 			"/>
			<path class="st11" d="M1460.56,427.71c-5.53-0.78-72.64-17.23-72.64-17.23l-13.26,28.39c0,0,40.45,36.72,78.3,40.39
				c19.25,1.87,28.59-7.78,32.83-22.04C1482.82,440.56,1481.79,430.72,1460.56,427.71z"/>
			<path class="st17" d="M1389.07,410.41c21.82,6.39,47.7,12.61,69.88,17.6"/>
			<path class="st17" d="M1374.52,439.46c3.85-8.94,8.15-17.7,12.86-26.22"/>
			<path class="st17" d="M1376.83,441.46c17.04,13.06,36.98,27.25,63.01,34.97c0,0,22.36,9.93,38.7-5.85"/>
		</g>
	</g>
</g>
<g id="Face">
	<g>
		<path class="st10" d="M1376.13,171.58c0,0-4.17,16.7-9.07,37.08c-2.12,8.79-3.9,27.57-1.21,35.19
			c0.91,2.58,12.61,21.23,23.26,23.03c0,0,18.42,1.89,34.7-4.8c2.92-1.2,13.55-18.32,16.99-27.4l19.93-52.67L1376.13,171.58z"/>
		<g>
			<polyline class="st25" points="1391.94,203.1 1382.87,225.03 1393.13,228 			"/>
			<path class="st26" d="M1404.91,229.37c-1.44,4.64,1.16,9.57,5.81,11.01c4.64,1.44,9.57-1.16,11.01-5.81
				c1.44-4.64-1.16-9.57-5.81-11.01C1411.27,222.12,1406.35,224.72,1404.91,229.37z"/>
			<path class="st26" d="M1365.57,217.02c-0.75,5.57-1.21,12.03-1.04,17.55c4.07,0.4,8.01-2.1,9.26-6.16
				c1.44-4.64-1.16-9.57-5.81-11.01C1367.18,217.15,1366.37,217.03,1365.57,217.02z"/>
		</g>
	</g>
</g>
<g id="R_ebr">
	<path class="st27" d="M1410.93,195.88c-0.37,1.37,4.42,1.24,6.5,2.69c3.46,2.4,5.26,5.89,6.27,3.93
		C1426.37,197.29,1412.49,190.08,1410.93,195.88z"/>
</g>
<g id="L_ebr">
	<path class="st27" d="M1371.22,186.72c0.41,1.49,3.11-0.5,5.9-0.32c3.6,0.23,7.41,2.21,7.3,0.38
		C1384.11,181.37,1369.74,181.3,1371.22,186.72z"/>
</g>
<g id="Mouth">
	<path class="st28" d="M1393.49,245.41c0,0-0.5-16.59-14.14-3.09"/>
</g>
<g id="R_eye">
	<path class="st27" d="M1411.88,212.26c-1.23,2.32-3.54,3.55-5.16,2.74c-1.62-0.81-1.93-3.35-0.7-5.67
		c1.23-2.32,3.54-3.55,5.16-2.74C1412.79,207.41,1413.11,209.94,1411.88,212.26z"/>
</g>
<g id="L_eye">
	<path class="st27" d="M1379.1,201.93c-0.74,2.37-2.75,3.86-4.48,3.33c-1.73-0.54-2.53-2.9-1.79-5.27c0.74-2.37,2.75-3.86,4.48-3.33
		C1379.04,197.2,1379.84,199.56,1379.1,201.93z"/>
</g>
<g id="Hairs">
	<g>
		<path class="st27" d="M1441.13,233.91c-11.73-18.47,2.43-38.68,2.43-38.68c-33.09-3.64-52.43-10.61-63.62-18.01
			c-14.51-9.6-9.63-30.69,7.53-32.97c30.79-4.09,77.83,0.41,74.14,37.06l0,0c9.92,5.13,13.96,16.7,9.09,26.04l-14.81,25.33
			l-26.37,22.18L1441.13,233.91z"/>
		<path class="st29" d="M1466.1,170.13c-0.89,6.39-4.48,11.18-4.48,11.18s5.05-2.57,11.93,1.4"/>
		<path class="st29" d="M1373.4,152.91c-6.47,5.07-6.04,15.7-0.96,22.17c5.07,6.47,13.32,9.54,21.35,11.31
			c9.5,2.1,19.31,2.8,29.01,2.07"/>
		<path class="st30" d="M1385.14,151.84c-3.1,1.48-3.26,5.93-1.99,9.13c2.86,7.21,10.07,11.69,17.2,14.74
			c15.38,6.59,32.59,8.86,49.16,6.47"/>
		<path class="st30" d="M1454.87,192.45c0.36,6.86-2.52,13.81-7.61,18.42"/>
		<path class="st30" d="M1465.54,197.64c-0.57,3.3-1.87,6.47-3.79,9.21"/>
		<path class="st30" d="M1408.98,157.4c-1.19,2.19,1.78,4.27,4.18,4.94c8.9,2.5,18.16,3.71,27.41,3.57"/>
	</g>
</g>
<g id="ear">
	<g>
		<path class="st10" d="M1454.24,236.02c-3.05,6.53-9.03,10.18-13.37,8.15c-4.33-2.02-8.36-8.81-5.31-15.34
			c3.05-6.53,12.02-10.32,16.35-8.3C1456.24,222.55,1457.29,229.49,1454.24,236.02z"/>
		<g>
			<path class="st31" d="M1453.1,228.3c-1.23-0.37-2.36-0.45-3.46-0.34c-1.1,0.1-2.16,0.37-3.17,0.77
				c-1.02,0.41-2.01,0.95-3.02,1.55c-1.02,0.59-2.03,1.27-3.18,1.85c0.55-1.16,1.3-2.18,2.21-3.09c0.91-0.9,2-1.67,3.25-2.17
				c1.26-0.5,2.64-0.69,3.98-0.48C1451.03,226.6,1452.35,227.24,1453.1,228.3z"/>
		</g>
	</g>
</g>
<g id="Board">
	<g>
		<g>
			<polygon class="st21" points="1317.57,448.5 1218.17,448.61 1167.62,310.19 1252.3,310.1 			"/>
			<polygon class="st32" points="1317.57,448.5 1218.17,448.61 1167.62,310.19 1252.3,310.1 			"/>
			<polygon class="st33" points="1309.06,462.9 1208.93,456.76 1160.4,307.24 1254.13,307.14 			"/>
			<g>
				<path class="st21" d="M1188.49,303.67l3.5,9.57c1.36,3.72,4.9,6.19,8.86,6.19l26.22-0.03c2.94,0,4.97-2.92,3.97-5.68
					l-3.69-10.09L1188.49,303.67z"/>
				<path class="st24" d="M1184.79,303.67l3.5,9.57c1.36,3.72,4.9,6.19,8.86,6.19l26.22-0.03c2.94,0,4.97-2.92,3.97-5.68
					l-3.69-10.09L1184.79,303.67z"/>
				<path class="st5" d="M1184.79,303.67l3.5,9.57c1.36,3.72,4.9,6.19,8.86,6.19l26.22-0.03c2.94,0,4.97-2.92,3.97-5.68l-3.69-10.09
					L1184.79,303.67z"/>
			</g>
		</g>
		<g>
			<path class="st10" d="M1181.4,375.77c-0.37,0.75-1.63-0.26-1.23-0.99c0.4-0.74,1.42-0.81,2.25-0.71
				c9.67,1.26,13.54,12.95,15.32,22.54c0.83,4.47,0.15,10.98-4.4,11.07c-7.97-8.84-13.33-20-15.24-31.75"/>
			<path class="st17" d="M1180.1,375.5c1.38-1.31,3.6-1.43,5.33-0.63c1.73,0.79,3.01,2.33,3.93,4c0.26,0.46,0.5,0.98,0.43,1.5
				c-0.07,0.51-0.42,0.93-0.77,1.3c-1.57,1.64-3.56,2.87-5.72,3.54"/>
			<path class="st17" d="M1191.29,401.38c1.7-1.19,3.41-2.51,4.39-4.34c0.98-1.83,1.06-4.3-0.35-5.83"/>
			<path class="st17" d="M1190.99,383.54c2.44,0.61,0.87,5.79-0.06,8.13c-1.66,0.7-3.31,1.39-4.97,2.09"/>
			<path class="st17" d="M1196.7,397.51c1.57,2.6,1.12,6.24-1.02,8.39"/>
		</g>
	</g>
</g>
<g id="Line">
	<line class="st34" x1="1712.65" y1="971.9" x2="222.49" y2="971.9"/>
</g>
</svg>
